<svg width="352" height="96" viewBox="0 0 352 96" fill="none" xmlns="http://www.w3.org/2000/svg">
<g clip-path="url(#clip0_9048_185)">
<path d="M21.332 5.33203H10.6654C7.71985 5.33203 5.33203 7.71985 5.33203 10.6654V21.332C5.33203 24.2775 7.71985 26.6654 10.6654 26.6654H21.332C24.2775 26.6654 26.6654 24.2775 26.6654 21.332V10.6654C26.6654 7.71985 24.2775 5.33203 21.332 5.33203Z" stroke="#D5C9BE" stroke-width="2" stroke-linecap="round" stroke-linejoin="round"/>
<path d="M16 20C18.2091 20 20 18.2091 20 16C20 13.7909 18.2091 12 16 12C13.7909 12 12 13.7909 12 16C12 18.2091 13.7909 20 16 20Z" stroke="#D5C9BE" stroke-width="2" stroke-linecap="round" stroke-linejoin="round"/>
<path d="M22 10V10.001" stroke="#D5C9BE" stroke-width="2" stroke-linecap="round" stroke-linejoin="round"/>
</g>
<g clip-path="url(#clip1_9048_185)">
<path d="M76.0013 15.9987C74.9465 15.9987 73.9153 16.3115 73.0383 16.8975C72.1612 17.4836 71.4776 18.3165 71.0739 19.2911C70.6703 20.2656 70.5647 21.3379 70.7704 22.3725C70.9762 23.4071 71.4842 24.3574 72.2301 25.1033C72.9759 25.8491 73.9263 26.3571 74.9608 26.5629C75.9954 26.7687 77.0677 26.6631 78.0423 26.2594C79.0168 25.8557 79.8498 25.1721 80.4358 24.2951C81.0218 23.418 81.3346 22.3869 81.3346 21.332V5.33203C81.3346 7.10014 82.037 8.79583 83.2873 10.0461C84.5375 11.2963 86.2332 11.9987 88.0013 11.9987" stroke="#D5C9BE" stroke-width="2" stroke-linecap="round" stroke-linejoin="round"/>
</g>
<g clip-path="url(#clip2_9048_185)">
<path d="M21.332 69.332H10.6654C7.71985 69.332 5.33203 71.7198 5.33203 74.6654V85.332C5.33203 88.2775 7.71985 90.6654 10.6654 90.6654H21.332C24.2775 90.6654 26.6654 88.2775 26.6654 85.332V74.6654C26.6654 71.7198 24.2775 69.332 21.332 69.332Z" stroke="white" stroke-width="2" stroke-linecap="round" stroke-linejoin="round"/>
<path d="M16 84C18.2091 84 20 82.2091 20 80C20 77.7909 18.2091 76 16 76C13.7909 76 12 77.7909 12 80C12 82.2091 13.7909 84 16 84Z" stroke="white" stroke-width="2" stroke-linecap="round" stroke-linejoin="round"/>
<path d="M22 74V74.001" stroke="white" stroke-width="2" stroke-linecap="round" stroke-linejoin="round"/>
</g>
<g clip-path="url(#clip3_9048_185)">
<path d="M76.0013 79.9987C74.9465 79.9987 73.9153 80.3115 73.0383 80.8975C72.1612 81.4836 71.4776 82.3165 71.0739 83.2911C70.6703 84.2656 70.5647 85.3379 70.7704 86.3725C70.9762 87.4071 71.4842 88.3574 72.2301 89.1033C72.9759 89.8491 73.9263 90.3571 74.9608 90.5629C75.9954 90.7687 77.0677 90.6631 78.0423 90.2594C79.0168 89.8557 79.8498 89.1721 80.4358 88.2951C81.0218 87.418 81.3346 86.3869 81.3346 85.332V69.332C81.3346 71.1001 82.037 72.7958 83.2873 74.0461C84.5375 75.2963 86.2332 75.9987 88.0013 75.9987" stroke="white" stroke-width="2" stroke-linecap="round" stroke-linejoin="round"/>
</g>
<g clip-path="url(#clip4_9048_185)">
<path d="M151.999 69.332H135.999C134.526 69.332 133.332 70.5259 133.332 71.9987V87.9987C133.332 89.4715 134.526 90.6654 135.999 90.6654H151.999C153.471 90.6654 154.665 89.4715 154.665 87.9987V71.9987C154.665 70.5259 153.471 69.332 151.999 69.332Z" stroke="white" stroke-width="2" stroke-linecap="round" stroke-linejoin="round"/>
<path d="M138.668 78.668V85.3346" stroke="white" stroke-width="2" stroke-linecap="round" stroke-linejoin="round"/>
<path d="M138.668 74.668V74.6813" stroke="white" stroke-width="2" stroke-linecap="round" stroke-linejoin="round"/>
<path d="M144 85.3346V78.668" stroke="white" stroke-width="2" stroke-linecap="round" stroke-linejoin="round"/>
<path d="M149.333 85.3346V81.3346C149.333 80.6274 149.052 79.9491 148.552 79.449C148.052 78.9489 147.374 78.668 146.667 78.668C145.959 78.668 145.281 78.9489 144.781 79.449C144.281 79.9491 144 80.6274 144 81.3346" stroke="white" stroke-width="2" stroke-linecap="round" stroke-linejoin="round"/>
</g>
<g clip-path="url(#clip5_9048_185)">
<path d="M201.332 77.3333V82.6667H205.332V92H210.665V82.6667H214.665L215.999 77.3333H210.665V74.6667C210.665 74.313 210.806 73.9739 211.056 73.7239C211.306 73.4738 211.645 73.3333 211.999 73.3333H215.999V68H211.999C210.231 68 208.535 68.7024 207.285 69.9526C206.034 71.2029 205.332 72.8986 205.332 74.6667V77.3333H201.332Z" stroke="white" stroke-width="2" stroke-linecap="round" stroke-linejoin="round"/>
</g>
<g clip-path="url(#clip6_9048_185)">
<path d="M276 77.332L270.667 82.6654L278.667 90.6654L284 69.332L260 78.6654L265.333 81.332L268 89.332L272 83.9987" stroke="white" stroke-width="2" stroke-linecap="round" stroke-linejoin="round"/>
</g>
<g clip-path="url(#clip7_9048_185)">
<path d="M342.667 70.668H329.333C326.388 70.668 324 73.0558 324 76.0013V84.0013C324 86.9468 326.388 89.3346 329.333 89.3346H342.667C345.612 89.3346 348 86.9468 348 84.0013V76.0013C348 73.0558 345.612 70.668 342.667 70.668Z" stroke="white" stroke-width="2" stroke-linecap="round" stroke-linejoin="round"/>
<path d="M333.332 76L339.999 80L333.332 84V76Z" stroke="white" stroke-width="2" stroke-linecap="round" stroke-linejoin="round"/>
</g>
<g clip-path="url(#clip8_9048_185)">
<path d="M151.999 5.33203H135.999C134.526 5.33203 133.332 6.52594 133.332 7.9987V23.9987C133.332 25.4715 134.526 26.6654 135.999 26.6654H151.999C153.471 26.6654 154.665 25.4715 154.665 23.9987V7.9987C154.665 6.52594 153.471 5.33203 151.999 5.33203Z" stroke="#D5C9BE" stroke-width="2" stroke-linecap="round" stroke-linejoin="round"/>
<path d="M138.668 14.668V21.3346" stroke="#D5C9BE" stroke-width="2" stroke-linecap="round" stroke-linejoin="round"/>
<path d="M138.668 10.668V10.6813" stroke="#D5C9BE" stroke-width="2" stroke-linecap="round" stroke-linejoin="round"/>
<path d="M144 21.3346V14.668" stroke="#D5C9BE" stroke-width="2" stroke-linecap="round" stroke-linejoin="round"/>
<path d="M149.333 21.3346V17.3346C149.333 16.6274 149.052 15.9491 148.552 15.449C148.052 14.9489 147.374 14.668 146.667 14.668C145.959 14.668 145.281 14.9489 144.781 15.449C144.281 15.9491 144 16.6274 144 17.3346" stroke="#D5C9BE" stroke-width="2" stroke-linecap="round" stroke-linejoin="round"/>
</g>
<g clip-path="url(#clip9_9048_185)">
<path d="M201.332 13.3333V18.6667H205.332V28H210.665V18.6667H214.665L215.999 13.3333H210.665V10.6667C210.665 10.313 210.806 9.97391 211.056 9.72386C211.306 9.47381 211.645 9.33333 211.999 9.33333H215.999V4H211.999C210.231 4 208.535 4.70238 207.285 5.95262C206.034 7.20286 205.332 8.89856 205.332 10.6667V13.3333H201.332Z" stroke="#D5C9BE" stroke-width="2" stroke-linecap="round" stroke-linejoin="round"/>
</g>
<g clip-path="url(#clip10_9048_185)">
<path d="M276 13.332L270.667 18.6654L278.667 26.6654L284 5.33203L260 14.6654L265.333 17.332L268 25.332L272 19.9987" stroke="#D5C9BE" stroke-width="2" stroke-linecap="round" stroke-linejoin="round"/>
</g>
<g clip-path="url(#clip11_9048_185)">
<path d="M342.667 6.66797H329.333C326.388 6.66797 324 9.05578 324 12.0013V20.0013C324 22.9468 326.388 25.3346 329.333 25.3346H342.667C345.612 25.3346 348 22.9468 348 20.0013V12.0013C348 9.05578 345.612 6.66797 342.667 6.66797Z" stroke="#D5C9BE" stroke-width="2" stroke-linecap="round" stroke-linejoin="round"/>
<path d="M333.332 12L339.999 16L333.332 20V12Z" stroke="#D5C9BE" stroke-width="2" stroke-linecap="round" stroke-linejoin="round"/>
</g>
<defs>
<clipPath id="clip0_9048_185">
<rect width="32" height="32" fill="white"/>
</clipPath>
<clipPath id="clip1_9048_185">
<rect width="32" height="32" fill="white" transform="translate(64)"/>
</clipPath>
<clipPath id="clip2_9048_185">
<rect width="32" height="32" fill="white" transform="translate(0 64)"/>
</clipPath>
<clipPath id="clip3_9048_185">
<rect width="32" height="32" fill="white" transform="translate(64 64)"/>
</clipPath>
<clipPath id="clip4_9048_185">
<rect width="32" height="32" fill="white" transform="translate(128 64)"/>
</clipPath>
<clipPath id="clip5_9048_185">
<rect width="32" height="32" fill="white" transform="translate(192 64)"/>
</clipPath>
<clipPath id="clip6_9048_185">
<rect width="32" height="32" fill="white" transform="translate(256 64)"/>
</clipPath>
<clipPath id="clip7_9048_185">
<rect width="32" height="32" fill="white" transform="translate(320 64)"/>
</clipPath>
<clipPath id="clip8_9048_185">
<rect width="32" height="32" fill="white" transform="translate(128)"/>
</clipPath>
<clipPath id="clip9_9048_185">
<rect width="32" height="32" fill="white" transform="translate(192)"/>
</clipPath>
<clipPath id="clip10_9048_185">
<rect width="32" height="32" fill="white" transform="translate(256)"/>
</clipPath>
<clipPath id="clip11_9048_185">
<rect width="32" height="32" fill="white" transform="translate(320)"/>
</clipPath>
</defs>
</svg>
