<svg xmlns="http://www.w3.org/2000/svg" width="32" height="32" fill="none"><g stroke="#fff" stroke-linecap="round" stroke-linejoin="round" stroke-width="2" clip-path="url('#clip0_9047_143')"><path d="M23.999 5.332h-16a2.667 2.667 0 0 0-2.667 2.667v16a2.667 2.667 0 0 0 2.667 2.666h16A2.667 2.667 0 0 0 26.665 24v-16A2.667 2.667 0 0 0 24 5.332M10.668 14.668v6.667M10.668 10.668v.013M16 21.335v-6.667"/><path d="M21.333 21.335v-4a2.667 2.667 0 1 0-5.333 0"/></g><defs><clipPath id="clip0_9047_143"><path fill="#fff" d="M0 0h32v32H0z"/></clipPath></defs></svg>