<svg xmlns="http://www.w3.org/2000/svg" width="202" height="34" fill="none"><mask id="path-1-inside-1_2_34" fill="#fff"><path d="M.936 26 6.372.296h6.3q3.852 0 6.084 1.656 2.268 1.656 2.268 5.4 0 2.016-.756 3.564a7.15 7.15 0 0 1-2.016 2.592q-1.26 1.008-2.88 1.584L19.944 26h-5.832l-3.636-9.864H8.388L6.3 26zm9.756-14.292q1.152 0 2.052-.252t1.512-.756q.648-.504.972-1.26.324-.792.324-1.8 0-1.44-.828-2.16t-2.628-.72H10.8l-1.476 6.948zM22.874 26 28.31.296h14.363l-.936 4.464h-9l-1.188 5.652h8.389l-.973 4.464h-8.388L29.174 21.5h9l-.936 4.5zM42.385 26 47.821.296h6.264l5.976 18.936h.144q.108-.576.216-1.404.144-.828.288-1.764.18-.972.36-1.908l.324-1.692L63.985.296h4.824L63.373 26h-6.012L51.097 6.56h-.18q-.036.216-.144 1.044a81 81 0 0 1-.288 1.908 45 45 0 0 1-.36 2.304q-.18 1.152-.36 2.088L47.21 26zM73.305 26l4.464-21.168h-6.192l.972-4.536h17.748l-.972 4.536h-6.192L78.669 26zM98.612 26.096q-3.384 0-5.472-1.08-2.052-1.116-3.42-3.42l2.7-1.98q1.044 1.98 2.592 2.88t3.852.9q3.384 0 5.364-1.404 1.98-1.44 1.98-3.816 0-1.152-.828-1.836-.792-.684-2.016-1.044-1.224-.396-3.456-.864l-.828-.18q-2.88-.648-4.428-2.052-1.548-1.44-1.548-3.924 0-2.412 1.188-4.248 1.224-1.872 3.456-2.88Q99.98.104 103.004.104q3.24 0 5.364 1.044t3.06 3.024L108.8 6.044q-1.908-3.24-5.976-3.24-2.88 0-4.572 1.404-1.656 1.368-1.656 3.672 0 1.692 1.332 2.484 1.332.756 3.78 1.224 2.556.54 4.14 1.116 1.62.54 2.736 1.8 1.116 1.224 1.116 3.348 0 2.448-1.368 4.32-1.332 1.872-3.852 2.916-2.484 1.008-5.868 1.008M124.426 8.384q2.952 0 4.572 1.8 1.656 1.8 1.656 4.752 0 .576-.144 1.728l-.18 1.152q-.54 3.528-2.772 5.904-2.196 2.376-5.724 2.376-1.872 0-3.276-.684t-2.16-1.908l-1.764 10.08h-3.168l3.708-21.024q.072-.432.072-.576 0-.504-.216-.864t-.756-.864l2.124-1.872q.972.612 1.44 1.296.504.684.576 1.584 2.232-2.88 6.012-2.88m2.916 8.28q.108-.72.108-1.332 0-1.98-1.044-3.204-1.008-1.26-2.988-1.26-3.636 0-5.4 3.564l-.972 5.616q.252 1.764 1.368 2.664 1.152.9 2.988.9 2.268 0 3.78-1.584 1.548-1.62 1.98-4.212zM147.303 21.92a4 4 0 0 0-.072.612q0 .468.216.828.252.36.756.864l-2.124 1.872q-.936-.612-1.44-1.26a3.2 3.2 0 0 1-.576-1.476q-1.008 1.26-2.556 2.016-1.548.72-3.564.72-2.448 0-3.816-1.116-1.332-1.116-1.332-3.096 0-2.916 1.944-4.284 1.98-1.368 5.508-1.728l2.52-.288q1.584-.18 2.124-.576.576-.396.684-1.404v.072q.072-1.44-.792-2.232-.828-.792-2.448-.792-1.872 0-2.952.468t-2.232 1.584l-1.872-1.548q1.26-1.44 2.952-2.088 1.692-.684 4.32-.684 2.952 0 4.572 1.26t1.62 3.456q0 .576-.108 1.188zm-8.532 1.836q2.34 0 3.888-1.188 1.584-1.188 1.908-3.024l.432-2.412q-.792.396-2.7.612l-2.16.216q-2.016.18-3.132 1.152-1.116.936-1.116 2.52 0 1.044.72 1.584.756.54 2.16.54M158.767 26.096q-3.276 0-5.04-1.332t-1.764-3.78q0-.648.108-1.296l.864-4.896q.576-3.06 2.664-4.716 2.088-1.692 5.472-1.692 2.34 0 3.996.72t2.448 2.052l-2.484 1.8q-.792-1.152-1.692-1.62t-2.376-.468q-1.944 0-3.24 1.044t-1.62 2.88l-.864 4.896a4.4 4.4 0 0 0-.072.9q0 1.476.936 2.268.936.756 2.772.756 1.44 0 2.556-.504t2.16-1.584l1.872 1.8q-1.332 1.44-2.952 2.124-1.584.648-3.744.648M172.289 19.76q-.072.324-.072.936 0 2.952 3.708 2.952 1.476 0 2.664-.432 1.224-.432 2.376-1.404l1.62 1.764a8.5 8.5 0 0 1-2.988 1.908q-1.656.612-3.78.612-3.348 0-5.076-1.224t-1.728-3.672q0-.792.144-1.476l.936-5.364q.504-2.808 2.52-4.392 2.052-1.584 5.256-1.584 3.06 0 4.824 1.44 1.764 1.404 1.764 3.924 0 2.592-1.044 3.744t-3.384 1.152h-7.56zm5.508-8.928q-1.872 0-3.096 1.008-1.188.972-1.512 2.736l-.324 1.8h6.12q1.224 0 1.764-.576t.54-2.016q0-1.404-.936-2.16-.9-.792-2.556-.792M192.586 26.096q-2.484 0-3.96-.72t-2.376-2.268l2.34-1.728q.756 1.26 1.656 1.764.9.468 2.448.468 2.088 0 3.204-.756 1.152-.792 1.152-2.124 0-.972-1.008-1.476t-3.42-.936q-2.232-.432-3.24-1.44-1.008-1.044-1.008-2.664 0-1.692.864-3.024t2.448-2.052q1.62-.756 3.744-.756 4.608 0 5.832 2.772l-2.268 1.692q-.684-1.044-1.62-1.512-.9-.468-2.268-.468-1.62 0-2.664.828-1.008.792-1.008 2.016 0 .864.756 1.332.792.468 2.268.792 3.06.648 4.356 1.584t1.296 2.916q0 2.736-1.944 4.248-1.908 1.512-5.58 1.512"/></mask><path fill="#fff" d="M.936 26 6.372.296h6.3q3.852 0 6.084 1.656 2.268 1.656 2.268 5.4 0 2.016-.756 3.564a7.15 7.15 0 0 1-2.016 2.592q-1.26 1.008-2.88 1.584L19.944 26h-5.832l-3.636-9.864H8.388L6.3 26zm9.756-14.292q1.152 0 2.052-.252t1.512-.756q.648-.504.972-1.26.324-.792.324-1.8 0-1.44-.828-2.16t-2.628-.72H10.8l-1.476 6.948zM22.874 26 28.31.296h14.363l-.936 4.464h-9l-1.188 5.652h8.389l-.973 4.464h-8.388L29.174 21.5h9l-.936 4.5zM42.385 26 47.821.296h6.264l5.976 18.936h.144q.108-.576.216-1.404.144-.828.288-1.764.18-.972.36-1.908l.324-1.692L63.985.296h4.824L63.373 26h-6.012L51.097 6.56h-.18q-.036.216-.144 1.044a81 81 0 0 1-.288 1.908 45 45 0 0 1-.36 2.304q-.18 1.152-.36 2.088L47.21 26zM73.305 26l4.464-21.168h-6.192l.972-4.536h17.748l-.972 4.536h-6.192L78.669 26zM98.612 26.096q-3.384 0-5.472-1.08-2.052-1.116-3.42-3.42l2.7-1.98q1.044 1.98 2.592 2.88t3.852.9q3.384 0 5.364-1.404 1.98-1.44 1.98-3.816 0-1.152-.828-1.836-.792-.684-2.016-1.044-1.224-.396-3.456-.864l-.828-.18q-2.88-.648-4.428-2.052-1.548-1.44-1.548-3.924 0-2.412 1.188-4.248 1.224-1.872 3.456-2.88Q99.98.104 103.004.104q3.24 0 5.364 1.044t3.06 3.024L108.8 6.044q-1.908-3.24-5.976-3.24-2.88 0-4.572 1.404-1.656 1.368-1.656 3.672 0 1.692 1.332 2.484 1.332.756 3.78 1.224 2.556.54 4.14 1.116 1.62.54 2.736 1.8 1.116 1.224 1.116 3.348 0 2.448-1.368 4.32-1.332 1.872-3.852 2.916-2.484 1.008-5.868 1.008M124.426 8.384q2.952 0 4.572 1.8 1.656 1.8 1.656 4.752 0 .576-.144 1.728l-.18 1.152q-.54 3.528-2.772 5.904-2.196 2.376-5.724 2.376-1.872 0-3.276-.684t-2.16-1.908l-1.764 10.08h-3.168l3.708-21.024q.072-.432.072-.576 0-.504-.216-.864t-.756-.864l2.124-1.872q.972.612 1.44 1.296.504.684.576 1.584 2.232-2.88 6.012-2.88m2.916 8.28q.108-.72.108-1.332 0-1.98-1.044-3.204-1.008-1.26-2.988-1.26-3.636 0-5.4 3.564l-.972 5.616q.252 1.764 1.368 2.664 1.152.9 2.988.9 2.268 0 3.78-1.584 1.548-1.62 1.98-4.212zM147.303 21.92a4 4 0 0 0-.072.612q0 .468.216.828.252.36.756.864l-2.124 1.872q-.936-.612-1.44-1.26a3.2 3.2 0 0 1-.576-1.476q-1.008 1.26-2.556 2.016-1.548.72-3.564.72-2.448 0-3.816-1.116-1.332-1.116-1.332-3.096 0-2.916 1.944-4.284 1.98-1.368 5.508-1.728l2.52-.288q1.584-.18 2.124-.576.576-.396.684-1.404v.072q.072-1.44-.792-2.232-.828-.792-2.448-.792-1.872 0-2.952.468t-2.232 1.584l-1.872-1.548q1.26-1.44 2.952-2.088 1.692-.684 4.32-.684 2.952 0 4.572 1.26t1.62 3.456q0 .576-.108 1.188zm-8.532 1.836q2.34 0 3.888-1.188 1.584-1.188 1.908-3.024l.432-2.412q-.792.396-2.7.612l-2.16.216q-2.016.18-3.132 1.152-1.116.936-1.116 2.52 0 1.044.72 1.584.756.54 2.16.54M158.767 26.096q-3.276 0-5.04-1.332t-1.764-3.78q0-.648.108-1.296l.864-4.896q.576-3.06 2.664-4.716 2.088-1.692 5.472-1.692 2.34 0 3.996.72t2.448 2.052l-2.484 1.8q-.792-1.152-1.692-1.62t-2.376-.468q-1.944 0-3.24 1.044t-1.62 2.88l-.864 4.896a4.4 4.4 0 0 0-.072.9q0 1.476.936 2.268.936.756 2.772.756 1.44 0 2.556-.504t2.16-1.584l1.872 1.8q-1.332 1.44-2.952 2.124-1.584.648-3.744.648M172.289 19.76q-.072.324-.072.936 0 2.952 3.708 2.952 1.476 0 2.664-.432 1.224-.432 2.376-1.404l1.62 1.764a8.5 8.5 0 0 1-2.988 1.908q-1.656.612-3.78.612-3.348 0-5.076-1.224t-1.728-3.672q0-.792.144-1.476l.936-5.364q.504-2.808 2.52-4.392 2.052-1.584 5.256-1.584 3.06 0 4.824 1.44 1.764 1.404 1.764 3.924 0 2.592-1.044 3.744t-3.384 1.152h-7.56zm5.508-8.928q-1.872 0-3.096 1.008-1.188.972-1.512 2.736l-.324 1.8h6.12q1.224 0 1.764-.576t.54-2.016q0-1.404-.936-2.16-.9-.792-2.556-.792M192.586 26.096q-2.484 0-3.96-.72t-2.376-2.268l2.34-1.728q.756 1.26 1.656 1.764.9.468 2.448.468 2.088 0 3.204-.756 1.152-.792 1.152-2.124 0-.972-1.008-1.476t-3.42-.936q-2.232-.432-3.24-1.44-1.008-1.044-1.008-2.664 0-1.692.864-3.024t2.448-2.052q1.62-.756 3.744-.756 4.608 0 5.832 2.772l-2.268 1.692q-.684-1.044-1.62-1.512-.9-.468-2.268-.468-1.62 0-2.664.828-1.008.792-1.008 2.016 0 .864.756 1.332.792.468 2.268.792 3.06.648 4.356 1.584t1.296 2.916q0 2.736-1.944 4.248-1.908 1.512-5.58 1.512"/><path stroke="#222" stroke-width="1.4" d="M.936 26 6.372.296h6.3q3.852 0 6.084 1.656 2.268 1.656 2.268 5.4 0 2.016-.756 3.564a7.15 7.15 0 0 1-2.016 2.592q-1.26 1.008-2.88 1.584L19.944 26h-5.832l-3.636-9.864H8.388L6.3 26zm9.756-14.292q1.152 0 2.052-.252t1.512-.756q.648-.504.972-1.26.324-.792.324-1.8 0-1.44-.828-2.16t-2.628-.72H10.8l-1.476 6.948zM22.874 26 28.31.296h14.363l-.936 4.464h-9l-1.188 5.652h8.389l-.973 4.464h-8.388L29.174 21.5h9l-.936 4.5zM42.385 26 47.821.296h6.264l5.976 18.936h.144q.108-.576.216-1.404.144-.828.288-1.764.18-.972.36-1.908l.324-1.692L63.985.296h4.824L63.373 26h-6.012L51.097 6.56h-.18q-.036.216-.144 1.044a81 81 0 0 1-.288 1.908 45 45 0 0 1-.36 2.304q-.18 1.152-.36 2.088L47.21 26zM73.305 26l4.464-21.168h-6.192l.972-4.536h17.748l-.972 4.536h-6.192L78.669 26zM98.612 26.096q-3.384 0-5.472-1.08-2.052-1.116-3.42-3.42l2.7-1.98q1.044 1.98 2.592 2.88t3.852.9q3.384 0 5.364-1.404 1.98-1.44 1.98-3.816 0-1.152-.828-1.836-.792-.684-2.016-1.044-1.224-.396-3.456-.864l-.828-.18q-2.88-.648-4.428-2.052-1.548-1.44-1.548-3.924 0-2.412 1.188-4.248 1.224-1.872 3.456-2.88Q99.98.104 103.004.104q3.24 0 5.364 1.044t3.06 3.024L108.8 6.044q-1.908-3.24-5.976-3.24-2.88 0-4.572 1.404-1.656 1.368-1.656 3.672 0 1.692 1.332 2.484 1.332.756 3.78 1.224 2.556.54 4.14 1.116 1.62.54 2.736 1.8 1.116 1.224 1.116 3.348 0 2.448-1.368 4.32-1.332 1.872-3.852 2.916-2.484 1.008-5.868 1.008ZM124.426 8.384q2.952 0 4.572 1.8 1.656 1.8 1.656 4.752 0 .576-.144 1.728l-.18 1.152q-.54 3.528-2.772 5.904-2.196 2.376-5.724 2.376-1.872 0-3.276-.684t-2.16-1.908l-1.764 10.08h-3.168l3.708-21.024q.072-.432.072-.576 0-.504-.216-.864t-.756-.864l2.124-1.872q.972.612 1.44 1.296.504.684.576 1.584 2.232-2.88 6.012-2.88Zm2.916 8.28q.108-.72.108-1.332 0-1.98-1.044-3.204-1.008-1.26-2.988-1.26-3.636 0-5.4 3.564l-.972 5.616q.252 1.764 1.368 2.664 1.152.9 2.988.9 2.268 0 3.78-1.584 1.548-1.62 1.98-4.212zM147.303 21.92a4 4 0 0 0-.072.612q0 .468.216.828.252.36.756.864l-2.124 1.872q-.936-.612-1.44-1.26a3.2 3.2 0 0 1-.576-1.476q-1.008 1.26-2.556 2.016-1.548.72-3.564.72-2.448 0-3.816-1.116-1.332-1.116-1.332-3.096 0-2.916 1.944-4.284 1.98-1.368 5.508-1.728l2.52-.288q1.584-.18 2.124-.576.576-.396.684-1.404v.072q.072-1.44-.792-2.232-.828-.792-2.448-.792-1.872 0-2.952.468t-2.232 1.584l-1.872-1.548q1.26-1.44 2.952-2.088 1.692-.684 4.32-.684 2.952 0 4.572 1.26t1.62 3.456q0 .576-.108 1.188zm-8.532 1.836q2.34 0 3.888-1.188 1.584-1.188 1.908-3.024l.432-2.412q-.792.396-2.7.612l-2.16.216q-2.016.18-3.132 1.152-1.116.936-1.116 2.52 0 1.044.72 1.584.756.54 2.16.54ZM158.767 26.096q-3.276 0-5.04-1.332t-1.764-3.78q0-.648.108-1.296l.864-4.896q.576-3.06 2.664-4.716 2.088-1.692 5.472-1.692 2.34 0 3.996.72t2.448 2.052l-2.484 1.8q-.792-1.152-1.692-1.62t-2.376-.468q-1.944 0-3.24 1.044t-1.62 2.88l-.864 4.896a4.4 4.4 0 0 0-.072.9q0 1.476.936 2.268.936.756 2.772.756 1.44 0 2.556-.504t2.16-1.584l1.872 1.8q-1.332 1.44-2.952 2.124-1.584.648-3.744.648ZM172.289 19.76q-.072.324-.072.936 0 2.952 3.708 2.952 1.476 0 2.664-.432 1.224-.432 2.376-1.404l1.62 1.764a8.5 8.5 0 0 1-2.988 1.908q-1.656.612-3.78.612-3.348 0-5.076-1.224t-1.728-3.672q0-.792.144-1.476l.936-5.364q.504-2.808 2.52-4.392 2.052-1.584 5.256-1.584 3.06 0 4.824 1.44 1.764 1.404 1.764 3.924 0 2.592-1.044 3.744t-3.384 1.152h-7.56zm5.508-8.928q-1.872 0-3.096 1.008-1.188.972-1.512 2.736l-.324 1.8h6.12q1.224 0 1.764-.576t.54-2.016q0-1.404-.936-2.16-.9-.792-2.556-.792ZM192.586 26.096q-2.484 0-3.96-.72t-2.376-2.268l2.34-1.728q.756 1.26 1.656 1.764.9.468 2.448.468 2.088 0 3.204-.756 1.152-.792 1.152-2.124 0-.972-1.008-1.476t-3.42-.936q-2.232-.432-3.24-1.44-1.008-1.044-1.008-2.664 0-1.692.864-3.024t2.448-2.052q1.62-.756 3.744-.756 4.608 0 5.832 2.772l-2.268 1.692q-.684-1.044-1.62-1.512-.9-.468-2.268-.468-1.62 0-2.664.828-1.008.792-1.008 2.016 0 .864.756 1.332.792.468 2.268.792 3.06.648 4.356 1.584t1.296 2.916q0 2.736-1.944 4.248-1.908 1.512-5.58 1.512Z" mask="url('#path-1-inside-1_2_34')"/></svg>