<svg width="202" height="34" viewBox="0 0 202 34" fill="none" xmlns="http://www.w3.org/2000/svg">
<mask id="path-1-inside-1_2_34" fill="white">
<path d="M0.936005 26L6.372 0.295991H12.672C15.24 0.295991 17.268 0.847991 18.756 1.95199C20.268 3.05599 21.024 4.85599 21.024 7.35199C21.024 8.69599 20.772 9.88399 20.268 10.916C19.788 11.948 19.116 12.812 18.252 13.508C17.412 14.18 16.452 14.708 15.372 15.092L19.944 26H14.112L10.476 16.136H8.388L6.3 26H0.936005ZM10.692 11.708C11.46 11.708 12.144 11.624 12.744 11.456C13.344 11.288 13.848 11.036 14.256 10.7C14.688 10.364 15.012 9.94399 15.228 9.43999C15.444 8.91199 15.552 8.31199 15.552 7.63999C15.552 6.67999 15.276 5.95999 14.724 5.47999C14.172 4.99999 13.296 4.75999 12.096 4.75999H10.8L9.32401 11.708H10.692Z"/>
<path d="M22.8735 26L28.3095 0.295991H42.6735L41.7375 4.75999H32.7375L31.5495 10.412H39.9375L38.9655 14.876H30.5775L29.1735 21.5H38.1735L37.2375 26H22.8735Z"/>
<path d="M42.3852 26L47.8212 0.295991H54.0852L60.0612 19.232H60.2052C60.2772 18.848 60.3492 18.38 60.4212 17.828C60.5172 17.276 60.6132 16.688 60.7092 16.064C60.8292 15.416 60.9492 14.78 61.0692 14.156C61.1892 13.532 61.2972 12.968 61.3932 12.464L63.9852 0.295991H68.8092L63.3732 26H57.3612L51.0972 6.55999H50.9172C50.8932 6.70399 50.8452 7.05199 50.7732 7.60399C50.7012 8.13199 50.6052 8.76799 50.4852 9.51199C50.3892 10.256 50.2692 11.024 50.1252 11.816C50.0052 12.584 49.8852 13.28 49.7652 13.904L47.2092 26H42.3852Z"/>
<path d="M73.305 26L77.769 4.83199H71.577L72.549 0.295991H90.297L89.325 4.83199H83.133L78.669 26H73.305Z"/>
<path d="M98.612 26.096C96.356 26.096 94.532 25.736 93.14 25.016C91.772 24.272 90.632 23.132 89.72 21.596L92.42 19.616C93.116 20.936 93.98 21.896 95.012 22.496C96.044 23.096 97.328 23.396 98.864 23.396C101.12 23.396 102.908 22.928 104.228 21.992C105.548 21.032 106.208 19.76 106.208 18.176C106.208 17.408 105.932 16.796 105.38 16.34C104.852 15.884 104.18 15.536 103.364 15.296C102.548 15.032 101.396 14.744 99.908 14.432L99.08 14.252C97.16 13.82 95.684 13.136 94.652 12.2C93.62 11.24 93.104 9.93199 93.104 8.27599C93.104 6.66799 93.5 5.25199 94.292 4.02799C95.108 2.77999 96.26 1.81999 97.748 1.14799C99.236 0.451988 100.988 0.103989 103.004 0.103989C105.164 0.103989 106.952 0.451988 108.368 1.14799C109.784 1.84399 110.804 2.85199 111.428 4.17199L108.8 6.04399C107.528 3.88399 105.536 2.80399 102.824 2.80399C100.904 2.80399 99.38 3.27199 98.252 4.20799C97.148 5.11999 96.596 6.34399 96.596 7.87999C96.596 9.00799 97.04 9.83599 97.928 10.364C98.816 10.868 100.076 11.276 101.708 11.588C103.412 11.948 104.792 12.32 105.848 12.704C106.928 13.064 107.84 13.664 108.584 14.504C109.328 15.32 109.7 16.436 109.7 17.852C109.7 19.484 109.244 20.924 108.332 22.172C107.444 23.42 106.16 24.392 104.48 25.088C102.824 25.76 100.868 26.096 98.612 26.096Z"/>
<path d="M124.426 8.38399C126.394 8.38399 127.918 8.98399 128.998 10.184C130.102 11.384 130.654 12.968 130.654 14.936C130.654 15.32 130.606 15.896 130.51 16.664L130.33 17.816C129.97 20.168 129.046 22.136 127.558 23.72C126.094 25.304 124.186 26.096 121.834 26.096C120.586 26.096 119.494 25.868 118.558 25.412C117.622 24.956 116.902 24.32 116.398 23.504L114.634 33.584H111.466L115.174 12.56C115.222 12.272 115.246 12.08 115.246 11.984C115.246 11.648 115.174 11.36 115.03 11.12C114.886 10.88 114.634 10.592 114.274 10.256L116.398 8.38399C117.046 8.79199 117.526 9.22399 117.838 9.67999C118.174 10.136 118.366 10.664 118.414 11.264C119.902 9.34399 121.906 8.38399 124.426 8.38399ZM127.342 16.664C127.414 16.184 127.45 15.74 127.45 15.332C127.45 14.012 127.102 12.944 126.406 12.128C125.734 11.288 124.738 10.868 123.418 10.868C120.994 10.868 119.194 12.056 118.018 14.432L117.046 20.048C117.214 21.224 117.67 22.112 118.414 22.712C119.182 23.312 120.178 23.612 121.402 23.612C122.914 23.612 124.174 23.084 125.182 22.028C126.214 20.948 126.874 19.544 127.162 17.816L127.342 16.664Z"/>
<path d="M147.303 21.92C147.255 22.208 147.231 22.412 147.231 22.532C147.231 22.844 147.303 23.12 147.447 23.36C147.615 23.6 147.867 23.888 148.203 24.224L146.079 26.096C145.455 25.688 144.975 25.268 144.639 24.836C144.327 24.404 144.135 23.912 144.063 23.36C143.391 24.2 142.539 24.872 141.507 25.376C140.475 25.856 139.287 26.096 137.943 26.096C136.311 26.096 135.039 25.724 134.127 24.98C133.239 24.236 132.795 23.204 132.795 21.884C132.795 19.94 133.443 18.512 134.739 17.6C136.059 16.688 137.895 16.112 140.247 15.872L142.767 15.584C143.823 15.464 144.531 15.272 144.891 15.008C145.275 14.744 145.503 14.276 145.575 13.604V13.676C145.623 12.716 145.359 11.972 144.783 11.444C144.231 10.916 143.415 10.652 142.335 10.652C141.087 10.652 140.103 10.808 139.383 11.12C138.663 11.432 137.919 11.96 137.151 12.704L135.279 11.156C136.119 10.196 137.103 9.49999 138.231 9.06799C139.359 8.61199 140.799 8.38399 142.551 8.38399C144.519 8.38399 146.043 8.80399 147.123 9.64399C148.203 10.484 148.743 11.636 148.743 13.1C148.743 13.484 148.707 13.88 148.635 14.288L147.303 21.92ZM138.771 23.756C140.331 23.756 141.627 23.36 142.659 22.568C143.715 21.776 144.351 20.768 144.567 19.544L144.999 17.132C144.471 17.396 143.571 17.6 142.299 17.744L140.139 17.96C138.795 18.08 137.751 18.464 137.007 19.112C136.263 19.736 135.891 20.576 135.891 21.632C135.891 22.328 136.131 22.856 136.611 23.216C137.115 23.576 137.835 23.756 138.771 23.756Z"/>
<path d="M158.767 26.096C156.583 26.096 154.903 25.652 153.727 24.764C152.551 23.876 151.963 22.616 151.963 20.984C151.963 20.552 151.999 20.12 152.071 19.688L152.935 14.792C153.319 12.752 154.207 11.18 155.599 10.076C156.991 8.94799 158.815 8.38399 161.071 8.38399C162.631 8.38399 163.963 8.62399 165.067 9.10399C166.171 9.58399 166.987 10.268 167.515 11.156L165.031 12.956C164.503 12.188 163.939 11.648 163.339 11.336C162.739 11.024 161.947 10.868 160.963 10.868C159.667 10.868 158.587 11.216 157.723 11.912C156.859 12.608 156.319 13.568 156.103 14.792L155.239 19.688C155.191 19.904 155.167 20.204 155.167 20.588C155.167 21.572 155.479 22.328 156.103 22.856C156.727 23.36 157.651 23.612 158.875 23.612C159.835 23.612 160.687 23.444 161.431 23.108C162.175 22.772 162.895 22.244 163.591 21.524L165.463 23.324C164.575 24.284 163.591 24.992 162.511 25.448C161.455 25.88 160.207 26.096 158.767 26.096Z"/>
<path d="M172.289 19.76C172.241 19.976 172.217 20.288 172.217 20.696C172.217 22.664 173.453 23.648 175.925 23.648C176.909 23.648 177.797 23.504 178.589 23.216C179.405 22.928 180.197 22.46 180.965 21.812L182.585 23.576C181.697 24.44 180.701 25.076 179.597 25.484C178.493 25.892 177.233 26.096 175.817 26.096C173.585 26.096 171.893 25.688 170.741 24.872C169.589 24.056 169.013 22.832 169.013 21.2C169.013 20.672 169.061 20.18 169.157 19.724L170.093 14.36C170.429 12.488 171.269 11.024 172.613 9.96799C173.981 8.91199 175.733 8.38399 177.869 8.38399C179.909 8.38399 181.517 8.86399 182.693 9.82399C183.869 10.76 184.457 12.068 184.457 13.748C184.457 15.476 184.109 16.724 183.413 17.492C182.717 18.26 181.589 18.644 180.029 18.644H172.469L172.289 19.76ZM177.797 10.832C176.549 10.832 175.517 11.168 174.701 11.84C173.909 12.488 173.405 13.4 173.189 14.576L172.865 16.376H178.985C179.801 16.376 180.389 16.184 180.749 15.8C181.109 15.416 181.289 14.744 181.289 13.784C181.289 12.848 180.977 12.128 180.353 11.624C179.753 11.096 178.901 10.832 177.797 10.832Z"/>
<path d="M192.586 26.096C190.93 26.096 189.61 25.856 188.626 25.376C187.642 24.896 186.85 24.14 186.25 23.108L188.59 21.38C189.094 22.22 189.646 22.808 190.246 23.144C190.846 23.456 191.662 23.612 192.694 23.612C194.086 23.612 195.154 23.36 195.898 22.856C196.666 22.328 197.05 21.62 197.05 20.732C197.05 20.084 196.714 19.592 196.042 19.256C195.37 18.92 194.23 18.608 192.622 18.32C191.134 18.032 190.054 17.552 189.382 16.88C188.71 16.184 188.374 15.296 188.374 14.216C188.374 13.088 188.662 12.08 189.238 11.192C189.814 10.304 190.63 9.61999 191.686 9.13999C192.766 8.63599 194.014 8.38399 195.43 8.38399C198.502 8.38399 200.446 9.30799 201.262 11.156L198.994 12.848C198.538 12.152 197.998 11.648 197.374 11.336C196.774 11.024 196.018 10.868 195.106 10.868C194.026 10.868 193.138 11.144 192.442 11.696C191.77 12.224 191.434 12.896 191.434 13.712C191.434 14.288 191.686 14.732 192.19 15.044C192.718 15.356 193.474 15.62 194.458 15.836C196.498 16.268 197.95 16.796 198.814 17.42C199.678 18.044 200.11 19.016 200.11 20.336C200.11 22.16 199.462 23.576 198.166 24.584C196.894 25.592 195.034 26.096 192.586 26.096Z"/>
</mask>
<path d="M0.936005 26L6.372 0.295991H12.672C15.24 0.295991 17.268 0.847991 18.756 1.95199C20.268 3.05599 21.024 4.85599 21.024 7.35199C21.024 8.69599 20.772 9.88399 20.268 10.916C19.788 11.948 19.116 12.812 18.252 13.508C17.412 14.18 16.452 14.708 15.372 15.092L19.944 26H14.112L10.476 16.136H8.388L6.3 26H0.936005ZM10.692 11.708C11.46 11.708 12.144 11.624 12.744 11.456C13.344 11.288 13.848 11.036 14.256 10.7C14.688 10.364 15.012 9.94399 15.228 9.43999C15.444 8.91199 15.552 8.31199 15.552 7.63999C15.552 6.67999 15.276 5.95999 14.724 5.47999C14.172 4.99999 13.296 4.75999 12.096 4.75999H10.8L9.32401 11.708H10.692Z" fill="white"/>
<path d="M22.8735 26L28.3095 0.295991H42.6735L41.7375 4.75999H32.7375L31.5495 10.412H39.9375L38.9655 14.876H30.5775L29.1735 21.5H38.1735L37.2375 26H22.8735Z" fill="white"/>
<path d="M42.3852 26L47.8212 0.295991H54.0852L60.0612 19.232H60.2052C60.2772 18.848 60.3492 18.38 60.4212 17.828C60.5172 17.276 60.6132 16.688 60.7092 16.064C60.8292 15.416 60.9492 14.78 61.0692 14.156C61.1892 13.532 61.2972 12.968 61.3932 12.464L63.9852 0.295991H68.8092L63.3732 26H57.3612L51.0972 6.55999H50.9172C50.8932 6.70399 50.8452 7.05199 50.7732 7.60399C50.7012 8.13199 50.6052 8.76799 50.4852 9.51199C50.3892 10.256 50.2692 11.024 50.1252 11.816C50.0052 12.584 49.8852 13.28 49.7652 13.904L47.2092 26H42.3852Z" fill="white"/>
<path d="M73.305 26L77.769 4.83199H71.577L72.549 0.295991H90.297L89.325 4.83199H83.133L78.669 26H73.305Z" fill="white"/>
<path d="M98.612 26.096C96.356 26.096 94.532 25.736 93.14 25.016C91.772 24.272 90.632 23.132 89.72 21.596L92.42 19.616C93.116 20.936 93.98 21.896 95.012 22.496C96.044 23.096 97.328 23.396 98.864 23.396C101.12 23.396 102.908 22.928 104.228 21.992C105.548 21.032 106.208 19.76 106.208 18.176C106.208 17.408 105.932 16.796 105.38 16.34C104.852 15.884 104.18 15.536 103.364 15.296C102.548 15.032 101.396 14.744 99.908 14.432L99.08 14.252C97.16 13.82 95.684 13.136 94.652 12.2C93.62 11.24 93.104 9.93199 93.104 8.27599C93.104 6.66799 93.5 5.25199 94.292 4.02799C95.108 2.77999 96.26 1.81999 97.748 1.14799C99.236 0.451988 100.988 0.103989 103.004 0.103989C105.164 0.103989 106.952 0.451988 108.368 1.14799C109.784 1.84399 110.804 2.85199 111.428 4.17199L108.8 6.04399C107.528 3.88399 105.536 2.80399 102.824 2.80399C100.904 2.80399 99.38 3.27199 98.252 4.20799C97.148 5.11999 96.596 6.34399 96.596 7.87999C96.596 9.00799 97.04 9.83599 97.928 10.364C98.816 10.868 100.076 11.276 101.708 11.588C103.412 11.948 104.792 12.32 105.848 12.704C106.928 13.064 107.84 13.664 108.584 14.504C109.328 15.32 109.7 16.436 109.7 17.852C109.7 19.484 109.244 20.924 108.332 22.172C107.444 23.42 106.16 24.392 104.48 25.088C102.824 25.76 100.868 26.096 98.612 26.096Z" fill="white"/>
<path d="M124.426 8.38399C126.394 8.38399 127.918 8.98399 128.998 10.184C130.102 11.384 130.654 12.968 130.654 14.936C130.654 15.32 130.606 15.896 130.51 16.664L130.33 17.816C129.97 20.168 129.046 22.136 127.558 23.72C126.094 25.304 124.186 26.096 121.834 26.096C120.586 26.096 119.494 25.868 118.558 25.412C117.622 24.956 116.902 24.32 116.398 23.504L114.634 33.584H111.466L115.174 12.56C115.222 12.272 115.246 12.08 115.246 11.984C115.246 11.648 115.174 11.36 115.03 11.12C114.886 10.88 114.634 10.592 114.274 10.256L116.398 8.38399C117.046 8.79199 117.526 9.22399 117.838 9.67999C118.174 10.136 118.366 10.664 118.414 11.264C119.902 9.34399 121.906 8.38399 124.426 8.38399ZM127.342 16.664C127.414 16.184 127.45 15.74 127.45 15.332C127.45 14.012 127.102 12.944 126.406 12.128C125.734 11.288 124.738 10.868 123.418 10.868C120.994 10.868 119.194 12.056 118.018 14.432L117.046 20.048C117.214 21.224 117.67 22.112 118.414 22.712C119.182 23.312 120.178 23.612 121.402 23.612C122.914 23.612 124.174 23.084 125.182 22.028C126.214 20.948 126.874 19.544 127.162 17.816L127.342 16.664Z" fill="white"/>
<path d="M147.303 21.92C147.255 22.208 147.231 22.412 147.231 22.532C147.231 22.844 147.303 23.12 147.447 23.36C147.615 23.6 147.867 23.888 148.203 24.224L146.079 26.096C145.455 25.688 144.975 25.268 144.639 24.836C144.327 24.404 144.135 23.912 144.063 23.36C143.391 24.2 142.539 24.872 141.507 25.376C140.475 25.856 139.287 26.096 137.943 26.096C136.311 26.096 135.039 25.724 134.127 24.98C133.239 24.236 132.795 23.204 132.795 21.884C132.795 19.94 133.443 18.512 134.739 17.6C136.059 16.688 137.895 16.112 140.247 15.872L142.767 15.584C143.823 15.464 144.531 15.272 144.891 15.008C145.275 14.744 145.503 14.276 145.575 13.604V13.676C145.623 12.716 145.359 11.972 144.783 11.444C144.231 10.916 143.415 10.652 142.335 10.652C141.087 10.652 140.103 10.808 139.383 11.12C138.663 11.432 137.919 11.96 137.151 12.704L135.279 11.156C136.119 10.196 137.103 9.49999 138.231 9.06799C139.359 8.61199 140.799 8.38399 142.551 8.38399C144.519 8.38399 146.043 8.80399 147.123 9.64399C148.203 10.484 148.743 11.636 148.743 13.1C148.743 13.484 148.707 13.88 148.635 14.288L147.303 21.92ZM138.771 23.756C140.331 23.756 141.627 23.36 142.659 22.568C143.715 21.776 144.351 20.768 144.567 19.544L144.999 17.132C144.471 17.396 143.571 17.6 142.299 17.744L140.139 17.96C138.795 18.08 137.751 18.464 137.007 19.112C136.263 19.736 135.891 20.576 135.891 21.632C135.891 22.328 136.131 22.856 136.611 23.216C137.115 23.576 137.835 23.756 138.771 23.756Z" fill="white"/>
<path d="M158.767 26.096C156.583 26.096 154.903 25.652 153.727 24.764C152.551 23.876 151.963 22.616 151.963 20.984C151.963 20.552 151.999 20.12 152.071 19.688L152.935 14.792C153.319 12.752 154.207 11.18 155.599 10.076C156.991 8.94799 158.815 8.38399 161.071 8.38399C162.631 8.38399 163.963 8.62399 165.067 9.10399C166.171 9.58399 166.987 10.268 167.515 11.156L165.031 12.956C164.503 12.188 163.939 11.648 163.339 11.336C162.739 11.024 161.947 10.868 160.963 10.868C159.667 10.868 158.587 11.216 157.723 11.912C156.859 12.608 156.319 13.568 156.103 14.792L155.239 19.688C155.191 19.904 155.167 20.204 155.167 20.588C155.167 21.572 155.479 22.328 156.103 22.856C156.727 23.36 157.651 23.612 158.875 23.612C159.835 23.612 160.687 23.444 161.431 23.108C162.175 22.772 162.895 22.244 163.591 21.524L165.463 23.324C164.575 24.284 163.591 24.992 162.511 25.448C161.455 25.88 160.207 26.096 158.767 26.096Z" fill="white"/>
<path d="M172.289 19.76C172.241 19.976 172.217 20.288 172.217 20.696C172.217 22.664 173.453 23.648 175.925 23.648C176.909 23.648 177.797 23.504 178.589 23.216C179.405 22.928 180.197 22.46 180.965 21.812L182.585 23.576C181.697 24.44 180.701 25.076 179.597 25.484C178.493 25.892 177.233 26.096 175.817 26.096C173.585 26.096 171.893 25.688 170.741 24.872C169.589 24.056 169.013 22.832 169.013 21.2C169.013 20.672 169.061 20.18 169.157 19.724L170.093 14.36C170.429 12.488 171.269 11.024 172.613 9.96799C173.981 8.91199 175.733 8.38399 177.869 8.38399C179.909 8.38399 181.517 8.86399 182.693 9.82399C183.869 10.76 184.457 12.068 184.457 13.748C184.457 15.476 184.109 16.724 183.413 17.492C182.717 18.26 181.589 18.644 180.029 18.644H172.469L172.289 19.76ZM177.797 10.832C176.549 10.832 175.517 11.168 174.701 11.84C173.909 12.488 173.405 13.4 173.189 14.576L172.865 16.376H178.985C179.801 16.376 180.389 16.184 180.749 15.8C181.109 15.416 181.289 14.744 181.289 13.784C181.289 12.848 180.977 12.128 180.353 11.624C179.753 11.096 178.901 10.832 177.797 10.832Z" fill="white"/>
<path d="M192.586 26.096C190.93 26.096 189.61 25.856 188.626 25.376C187.642 24.896 186.85 24.14 186.25 23.108L188.59 21.38C189.094 22.22 189.646 22.808 190.246 23.144C190.846 23.456 191.662 23.612 192.694 23.612C194.086 23.612 195.154 23.36 195.898 22.856C196.666 22.328 197.05 21.62 197.05 20.732C197.05 20.084 196.714 19.592 196.042 19.256C195.37 18.92 194.23 18.608 192.622 18.32C191.134 18.032 190.054 17.552 189.382 16.88C188.71 16.184 188.374 15.296 188.374 14.216C188.374 13.088 188.662 12.08 189.238 11.192C189.814 10.304 190.63 9.61999 191.686 9.13999C192.766 8.63599 194.014 8.38399 195.43 8.38399C198.502 8.38399 200.446 9.30799 201.262 11.156L198.994 12.848C198.538 12.152 197.998 11.648 197.374 11.336C196.774 11.024 196.018 10.868 195.106 10.868C194.026 10.868 193.138 11.144 192.442 11.696C191.77 12.224 191.434 12.896 191.434 13.712C191.434 14.288 191.686 14.732 192.19 15.044C192.718 15.356 193.474 15.62 194.458 15.836C196.498 16.268 197.95 16.796 198.814 17.42C199.678 18.044 200.11 19.016 200.11 20.336C200.11 22.16 199.462 23.576 198.166 24.584C196.894 25.592 195.034 26.096 192.586 26.096Z" fill="white"/>
<path d="M0.936005 26L6.372 0.295991H12.672C15.24 0.295991 17.268 0.847991 18.756 1.95199C20.268 3.05599 21.024 4.85599 21.024 7.35199C21.024 8.69599 20.772 9.88399 20.268 10.916C19.788 11.948 19.116 12.812 18.252 13.508C17.412 14.18 16.452 14.708 15.372 15.092L19.944 26H14.112L10.476 16.136H8.388L6.3 26H0.936005ZM10.692 11.708C11.46 11.708 12.144 11.624 12.744 11.456C13.344 11.288 13.848 11.036 14.256 10.7C14.688 10.364 15.012 9.94399 15.228 9.43999C15.444 8.91199 15.552 8.31199 15.552 7.63999C15.552 6.67999 15.276 5.95999 14.724 5.47999C14.172 4.99999 13.296 4.75999 12.096 4.75999H10.8L9.32401 11.708H10.692Z" stroke="#222222" stroke-width="1.4" mask="url(#path-1-inside-1_2_34)"/>
<path d="M22.8735 26L28.3095 0.295991H42.6735L41.7375 4.75999H32.7375L31.5495 10.412H39.9375L38.9655 14.876H30.5775L29.1735 21.5H38.1735L37.2375 26H22.8735Z" stroke="#222222" stroke-width="1.4" mask="url(#path-1-inside-1_2_34)"/>
<path d="M42.3852 26L47.8212 0.295991H54.0852L60.0612 19.232H60.2052C60.2772 18.848 60.3492 18.38 60.4212 17.828C60.5172 17.276 60.6132 16.688 60.7092 16.064C60.8292 15.416 60.9492 14.78 61.0692 14.156C61.1892 13.532 61.2972 12.968 61.3932 12.464L63.9852 0.295991H68.8092L63.3732 26H57.3612L51.0972 6.55999H50.9172C50.8932 6.70399 50.8452 7.05199 50.7732 7.60399C50.7012 8.13199 50.6052 8.76799 50.4852 9.51199C50.3892 10.256 50.2692 11.024 50.1252 11.816C50.0052 12.584 49.8852 13.28 49.7652 13.904L47.2092 26H42.3852Z" stroke="#222222" stroke-width="1.4" mask="url(#path-1-inside-1_2_34)"/>
<path d="M73.305 26L77.769 4.83199H71.577L72.549 0.295991H90.297L89.325 4.83199H83.133L78.669 26H73.305Z" stroke="#222222" stroke-width="1.4" mask="url(#path-1-inside-1_2_34)"/>
<path d="M98.612 26.096C96.356 26.096 94.532 25.736 93.14 25.016C91.772 24.272 90.632 23.132 89.72 21.596L92.42 19.616C93.116 20.936 93.98 21.896 95.012 22.496C96.044 23.096 97.328 23.396 98.864 23.396C101.12 23.396 102.908 22.928 104.228 21.992C105.548 21.032 106.208 19.76 106.208 18.176C106.208 17.408 105.932 16.796 105.38 16.34C104.852 15.884 104.18 15.536 103.364 15.296C102.548 15.032 101.396 14.744 99.908 14.432L99.08 14.252C97.16 13.82 95.684 13.136 94.652 12.2C93.62 11.24 93.104 9.93199 93.104 8.27599C93.104 6.66799 93.5 5.25199 94.292 4.02799C95.108 2.77999 96.26 1.81999 97.748 1.14799C99.236 0.451988 100.988 0.103989 103.004 0.103989C105.164 0.103989 106.952 0.451988 108.368 1.14799C109.784 1.84399 110.804 2.85199 111.428 4.17199L108.8 6.04399C107.528 3.88399 105.536 2.80399 102.824 2.80399C100.904 2.80399 99.38 3.27199 98.252 4.20799C97.148 5.11999 96.596 6.34399 96.596 7.87999C96.596 9.00799 97.04 9.83599 97.928 10.364C98.816 10.868 100.076 11.276 101.708 11.588C103.412 11.948 104.792 12.32 105.848 12.704C106.928 13.064 107.84 13.664 108.584 14.504C109.328 15.32 109.7 16.436 109.7 17.852C109.7 19.484 109.244 20.924 108.332 22.172C107.444 23.42 106.16 24.392 104.48 25.088C102.824 25.76 100.868 26.096 98.612 26.096Z" stroke="#222222" stroke-width="1.4" mask="url(#path-1-inside-1_2_34)"/>
<path d="M124.426 8.38399C126.394 8.38399 127.918 8.98399 128.998 10.184C130.102 11.384 130.654 12.968 130.654 14.936C130.654 15.32 130.606 15.896 130.51 16.664L130.33 17.816C129.97 20.168 129.046 22.136 127.558 23.72C126.094 25.304 124.186 26.096 121.834 26.096C120.586 26.096 119.494 25.868 118.558 25.412C117.622 24.956 116.902 24.32 116.398 23.504L114.634 33.584H111.466L115.174 12.56C115.222 12.272 115.246 12.08 115.246 11.984C115.246 11.648 115.174 11.36 115.03 11.12C114.886 10.88 114.634 10.592 114.274 10.256L116.398 8.38399C117.046 8.79199 117.526 9.22399 117.838 9.67999C118.174 10.136 118.366 10.664 118.414 11.264C119.902 9.34399 121.906 8.38399 124.426 8.38399ZM127.342 16.664C127.414 16.184 127.45 15.74 127.45 15.332C127.45 14.012 127.102 12.944 126.406 12.128C125.734 11.288 124.738 10.868 123.418 10.868C120.994 10.868 119.194 12.056 118.018 14.432L117.046 20.048C117.214 21.224 117.67 22.112 118.414 22.712C119.182 23.312 120.178 23.612 121.402 23.612C122.914 23.612 124.174 23.084 125.182 22.028C126.214 20.948 126.874 19.544 127.162 17.816L127.342 16.664Z" stroke="#222222" stroke-width="1.4" mask="url(#path-1-inside-1_2_34)"/>
<path d="M147.303 21.92C147.255 22.208 147.231 22.412 147.231 22.532C147.231 22.844 147.303 23.12 147.447 23.36C147.615 23.6 147.867 23.888 148.203 24.224L146.079 26.096C145.455 25.688 144.975 25.268 144.639 24.836C144.327 24.404 144.135 23.912 144.063 23.36C143.391 24.2 142.539 24.872 141.507 25.376C140.475 25.856 139.287 26.096 137.943 26.096C136.311 26.096 135.039 25.724 134.127 24.98C133.239 24.236 132.795 23.204 132.795 21.884C132.795 19.94 133.443 18.512 134.739 17.6C136.059 16.688 137.895 16.112 140.247 15.872L142.767 15.584C143.823 15.464 144.531 15.272 144.891 15.008C145.275 14.744 145.503 14.276 145.575 13.604V13.676C145.623 12.716 145.359 11.972 144.783 11.444C144.231 10.916 143.415 10.652 142.335 10.652C141.087 10.652 140.103 10.808 139.383 11.12C138.663 11.432 137.919 11.96 137.151 12.704L135.279 11.156C136.119 10.196 137.103 9.49999 138.231 9.06799C139.359 8.61199 140.799 8.38399 142.551 8.38399C144.519 8.38399 146.043 8.80399 147.123 9.64399C148.203 10.484 148.743 11.636 148.743 13.1C148.743 13.484 148.707 13.88 148.635 14.288L147.303 21.92ZM138.771 23.756C140.331 23.756 141.627 23.36 142.659 22.568C143.715 21.776 144.351 20.768 144.567 19.544L144.999 17.132C144.471 17.396 143.571 17.6 142.299 17.744L140.139 17.96C138.795 18.08 137.751 18.464 137.007 19.112C136.263 19.736 135.891 20.576 135.891 21.632C135.891 22.328 136.131 22.856 136.611 23.216C137.115 23.576 137.835 23.756 138.771 23.756Z" stroke="#222222" stroke-width="1.4" mask="url(#path-1-inside-1_2_34)"/>
<path d="M158.767 26.096C156.583 26.096 154.903 25.652 153.727 24.764C152.551 23.876 151.963 22.616 151.963 20.984C151.963 20.552 151.999 20.12 152.071 19.688L152.935 14.792C153.319 12.752 154.207 11.18 155.599 10.076C156.991 8.94799 158.815 8.38399 161.071 8.38399C162.631 8.38399 163.963 8.62399 165.067 9.10399C166.171 9.58399 166.987 10.268 167.515 11.156L165.031 12.956C164.503 12.188 163.939 11.648 163.339 11.336C162.739 11.024 161.947 10.868 160.963 10.868C159.667 10.868 158.587 11.216 157.723 11.912C156.859 12.608 156.319 13.568 156.103 14.792L155.239 19.688C155.191 19.904 155.167 20.204 155.167 20.588C155.167 21.572 155.479 22.328 156.103 22.856C156.727 23.36 157.651 23.612 158.875 23.612C159.835 23.612 160.687 23.444 161.431 23.108C162.175 22.772 162.895 22.244 163.591 21.524L165.463 23.324C164.575 24.284 163.591 24.992 162.511 25.448C161.455 25.88 160.207 26.096 158.767 26.096Z" stroke="#222222" stroke-width="1.4" mask="url(#path-1-inside-1_2_34)"/>
<path d="M172.289 19.76C172.241 19.976 172.217 20.288 172.217 20.696C172.217 22.664 173.453 23.648 175.925 23.648C176.909 23.648 177.797 23.504 178.589 23.216C179.405 22.928 180.197 22.46 180.965 21.812L182.585 23.576C181.697 24.44 180.701 25.076 179.597 25.484C178.493 25.892 177.233 26.096 175.817 26.096C173.585 26.096 171.893 25.688 170.741 24.872C169.589 24.056 169.013 22.832 169.013 21.2C169.013 20.672 169.061 20.18 169.157 19.724L170.093 14.36C170.429 12.488 171.269 11.024 172.613 9.96799C173.981 8.91199 175.733 8.38399 177.869 8.38399C179.909 8.38399 181.517 8.86399 182.693 9.82399C183.869 10.76 184.457 12.068 184.457 13.748C184.457 15.476 184.109 16.724 183.413 17.492C182.717 18.26 181.589 18.644 180.029 18.644H172.469L172.289 19.76ZM177.797 10.832C176.549 10.832 175.517 11.168 174.701 11.84C173.909 12.488 173.405 13.4 173.189 14.576L172.865 16.376H178.985C179.801 16.376 180.389 16.184 180.749 15.8C181.109 15.416 181.289 14.744 181.289 13.784C181.289 12.848 180.977 12.128 180.353 11.624C179.753 11.096 178.901 10.832 177.797 10.832Z" stroke="#222222" stroke-width="1.4" mask="url(#path-1-inside-1_2_34)"/>
<path d="M192.586 26.096C190.93 26.096 189.61 25.856 188.626 25.376C187.642 24.896 186.85 24.14 186.25 23.108L188.59 21.38C189.094 22.22 189.646 22.808 190.246 23.144C190.846 23.456 191.662 23.612 192.694 23.612C194.086 23.612 195.154 23.36 195.898 22.856C196.666 22.328 197.05 21.62 197.05 20.732C197.05 20.084 196.714 19.592 196.042 19.256C195.37 18.92 194.23 18.608 192.622 18.32C191.134 18.032 190.054 17.552 189.382 16.88C188.71 16.184 188.374 15.296 188.374 14.216C188.374 13.088 188.662 12.08 189.238 11.192C189.814 10.304 190.63 9.61999 191.686 9.13999C192.766 8.63599 194.014 8.38399 195.43 8.38399C198.502 8.38399 200.446 9.30799 201.262 11.156L198.994 12.848C198.538 12.152 197.998 11.648 197.374 11.336C196.774 11.024 196.018 10.868 195.106 10.868C194.026 10.868 193.138 11.144 192.442 11.696C191.77 12.224 191.434 12.896 191.434 13.712C191.434 14.288 191.686 14.732 192.19 15.044C192.718 15.356 193.474 15.62 194.458 15.836C196.498 16.268 197.95 16.796 198.814 17.42C199.678 18.044 200.11 19.016 200.11 20.336C200.11 22.16 199.462 23.576 198.166 24.584C196.894 25.592 195.034 26.096 192.586 26.096Z" stroke="#222222" stroke-width="1.4" mask="url(#path-1-inside-1_2_34)"/>
</svg>
